<?xml version="1.0" encoding="iso-8859-1"?>
<!-- Generator: Adobe Illustrator 17.1.0, SVG Export Plug-In . SVG Version: 6.00 Build 0)  -->
<!DOCTYPE svg PUBLIC "-//W3C//DTD SVG 1.1//EN" "http://www.w3.org/Graphics/SVG/1.1/DTD/svg11.dtd">
<svg version="1.1" id="Capa_1" xmlns="http://www.w3.org/2000/svg" xmlns:xlink="http://www.w3.org/1999/xlink" x="0px" y="0px"
	 viewBox="0 0 512 512" style="enable-background:new 0 0 512 512;" xml:space="preserve">
<g>
	<path d="M437.022,74.984C388.67,26.63,324.381,0,256,0C187.624,0,123.338,26.63,74.984,74.984S0,187.624,0,256
		c0,68.388,26.63,132.678,74.984,181.028C123.335,485.374,187.621,512,256,512c68.385,0,132.673-26.626,181.021-74.972
		C485.372,388.679,512,324.389,512,256C512,187.623,485.372,123.336,437.022,74.984z M425.708,425.714
		C380.381,471.039,320.111,496,256,496c-64.106,0-124.374-24.961-169.703-70.286C40.965,380.386,16,320.113,16,256
		c0-64.102,24.965-124.37,70.297-169.703C131.63,40.965,191.898,16,256,16c64.108,0,124.378,24.965,169.708,70.297
		C471.037,131.628,496,191.896,496,256C496,320.115,471.037,380.387,425.708,425.714z"/>
	<path d="M430.038,114.969c-2.784-3.431-7.821-3.957-11.253-1.172c-3.431,2.784-3.956,7.822-1.172,11.252
		C447.526,161.919,464,208.426,464,256c0,55.567-21.635,107.803-60.919,147.085C363.797,442.367,311.563,464,256,464
		c-51.26,0-100.505-18.807-138.663-52.956c-3.292-2.946-8.35-2.666-11.296,0.626s-2.666,8.35,0.626,11.296
		C147.763,459.745,200.797,480,256,480c59.837,0,116.089-23.297,158.394-65.601C456.701,372.095,480,315.84,480,256
		C480,204.767,462.256,154.681,430.038,114.969z"/>
	<path d="M48,256c0-114.691,93.309-208,208-208c51.26,0,100.504,18.808,138.662,52.959c3.293,2.948,8.351,2.666,11.296-0.625
		c2.947-3.292,2.667-8.35-0.625-11.296C364.237,52.256,311.203,32,256,32c-59.829,0-116.08,23.301-158.389,65.611
		C55.301,139.921,32,196.171,32,256c0,51.239,17.744,101.328,49.963,141.038c1.581,1.949,3.889,2.96,6.217,2.96
		c1.771,0,3.553-0.585,5.036-1.788c3.431-2.784,3.956-7.822,1.172-11.253C64.474,350.088,48,303.58,48,256z"/>
	<path d="M401.753,189.305c-0.125-2.563-1.471-4.911-3.621-6.312l-80.534-52.524c-2.943-1.92-6.795-1.693-9.494,0.557l-51.22,42.718
		l-51.226-42.719c-2.699-2.251-6.552-2.477-9.494-0.557l-80.536,52.524c-2.149,1.401-3.496,3.749-3.621,6.312
		c-0.125,2.563,0.988,5.03,2.991,6.633l47.882,38.339l-47.881,38.319c-2.003,1.604-3.116,4.07-2.992,6.633s1.47,4.911,3.619,6.313
		l52.818,34.461c-0.056,0.382-0.094,0.769-0.094,1.166v22.119c0,2.812,1.476,5.417,3.887,6.862l80.7,48.366
		c1.266,0.759,2.689,1.138,4.113,1.138s2.847-0.379,4.113-1.138l80.7-48.366c2.411-1.445,3.887-4.05,3.887-6.862v-22.119
		c0-0.467-0.048-0.922-0.125-1.367l52.508-34.26c2.149-1.402,3.495-3.75,3.619-6.313c0.124-2.563-0.989-5.03-2.992-6.633
		l-47.879-38.319l47.881-38.339C400.766,194.334,401.878,191.867,401.753,189.305z M256.885,274.997l-65.97-40.718l65.97-40.717
		l65.965,40.717L256.885,274.997z M199.953,147.101l43.275,36.088l-66.947,41.32l-42.653-34.152L199.953,147.101z M176.28,244.048
		l66.949,41.322l-43.274,36.087l-66.326-43.275L176.28,244.048z M329.751,338.756l-72.7,43.572l-72.7-43.572v-8.375l11.813,7.707
		c1.334,0.87,2.855,1.3,4.371,1.3c1.828,0,3.649-0.625,5.125-1.856l51.226-42.718l51.22,42.717c1.476,1.231,3.297,1.856,5.125,1.856
		c1.516,0,3.037-0.43,4.371-1.3l12.15-7.928V338.756z M313.811,321.457l-43.27-36.086l66.944-41.322l42.65,34.133L313.811,321.457z
		 M337.483,224.509l-66.942-41.32l43.27-36.088l66.324,43.256L337.483,224.509z"/>
</g>
<g>
</g>
<g>
</g>
<g>
</g>
<g>
</g>
<g>
</g>
<g>
</g>
<g>
</g>
<g>
</g>
<g>
</g>
<g>
</g>
<g>
</g>
<g>
</g>
<g>
</g>
<g>
</g>
<g>
</g>
</svg>
