<?xml version="1.0" encoding="iso-8859-1"?>
<!-- Generator: Adobe Illustrator 17.1.0, SVG Export Plug-In . SVG Version: 6.00 Build 0)  -->
<!DOCTYPE svg PUBLIC "-//W3C//DTD SVG 1.1//EN" "http://www.w3.org/Graphics/SVG/1.1/DTD/svg11.dtd">
<svg version="1.1" id="Capa_1" xmlns="http://www.w3.org/2000/svg" xmlns:xlink="http://www.w3.org/1999/xlink" x="0px" y="0px"
	 viewBox="0 0 512 512" style="enable-background:new 0 0 512 512;" xml:space="preserve">
<g>
	<path d="M437.022,74.984C388.67,26.63,324.381,0,256,0C187.624,0,123.338,26.63,74.984,74.984S0,187.624,0,256
		c0,68.388,26.63,132.678,74.984,181.028C123.335,485.374,187.621,512,256,512c68.385,0,132.673-26.626,181.021-74.972
		C485.372,388.679,512,324.389,512,256C512,187.623,485.372,123.336,437.022,74.984z M425.708,425.714
		C380.381,471.039,320.111,496,256,496c-64.106,0-124.374-24.961-169.703-70.286C40.965,380.386,16,320.113,16,256
		c0-64.102,24.965-124.37,70.297-169.703C131.63,40.965,191.898,16,256,16c64.108,0,124.378,24.965,169.708,70.297
		C471.037,131.628,496,191.896,496,256C496,320.115,471.037,380.387,425.708,425.714z"/>
	<path d="M430.038,114.969c-2.783-3.431-7.821-3.957-11.253-1.172c-3.431,2.784-3.956,7.822-1.172,11.252
		C447.526,161.919,464,208.426,464,256c0,55.567-21.635,107.803-60.919,147.085C363.797,442.367,311.563,464,256,464
		c-51.26,0-100.505-18.807-138.663-52.956c-3.292-2.946-8.35-2.666-11.296,0.626c-2.946,3.292-2.666,8.35,0.626,11.296
		C147.763,459.745,200.797,480,256,480c59.837,0,116.089-23.297,158.394-65.601C456.701,372.095,480,315.84,480,256
		C480,204.767,462.256,154.681,430.038,114.969z"/>
	<path d="M48,256c0-114.691,93.309-208,208-208c51.26,0,100.504,18.808,138.662,52.959c3.293,2.948,8.351,2.666,11.296-0.625
		c2.947-3.292,2.667-8.35-0.625-11.296C364.237,52.256,311.203,32,256,32c-59.829,0-116.08,23.301-158.389,65.611
		C55.301,139.921,32,196.171,32,256c0,51.239,17.744,101.328,49.963,141.038c1.581,1.949,3.889,2.96,6.217,2.96
		c1.771,0,3.553-0.585,5.036-1.788c3.431-2.784,3.956-7.822,1.172-11.253C64.474,350.088,48,303.58,48,256z"/>
	<path d="M391.999,287.677c0-0.008,0.001-0.015,0.001-0.023c0-0.056-0.007-0.111-0.008-0.167c-0.003-0.131-0.006-0.263-0.015-0.394
		c-0.005-0.066-0.008-0.132-0.015-0.198c-0.007-0.072-0.018-0.142-0.027-0.214c-0.015-0.124-0.032-0.247-0.053-0.37
		c-0.01-0.059-0.019-0.118-0.031-0.176c-0.016-0.085-0.036-0.169-0.055-0.254c-0.025-0.109-0.051-0.218-0.081-0.327
		c-0.015-0.055-0.029-0.11-0.045-0.164c-0.029-0.098-0.061-0.194-0.094-0.29c-0.031-0.091-0.062-0.183-0.097-0.273
		c-0.021-0.057-0.043-0.114-0.065-0.17c-0.043-0.105-0.089-0.208-0.136-0.311c-0.034-0.074-0.066-0.148-0.102-0.221
		c-0.03-0.061-0.06-0.122-0.092-0.182c-0.056-0.108-0.118-0.212-0.179-0.316c-0.028-0.048-0.05-0.097-0.079-0.145l-0.069-0.113
		c-0.004-0.006-0.007-0.012-0.011-0.018l-87.92-143.868c-0.026-0.043-0.057-0.08-0.083-0.122c-0.084-0.131-0.172-0.259-0.263-0.385
		c-0.07-0.097-0.14-0.193-0.214-0.286c-0.081-0.102-0.166-0.201-0.251-0.299c-0.092-0.105-0.184-0.209-0.28-0.309
		c-0.077-0.079-0.158-0.155-0.238-0.231c-0.11-0.104-0.22-0.207-0.335-0.304c-0.081-0.068-0.165-0.132-0.248-0.197
		c-0.118-0.092-0.237-0.184-0.36-0.269c-0.096-0.067-0.196-0.128-0.296-0.191c-0.114-0.072-0.228-0.144-0.345-0.21
		c-0.119-0.067-0.241-0.127-0.363-0.187c-0.104-0.052-0.208-0.104-0.314-0.151c-0.137-0.061-0.277-0.114-0.418-0.167
		c-0.098-0.037-0.196-0.075-0.296-0.108c-0.144-0.048-0.291-0.088-0.438-0.128c-0.106-0.028-0.211-0.057-0.317-0.082
		c-0.136-0.031-0.275-0.055-0.414-0.079c-0.126-0.022-0.253-0.042-0.38-0.058c-0.12-0.015-0.242-0.025-0.363-0.034
		c-0.152-0.012-0.303-0.02-0.456-0.023c-0.051-0.001-0.101-0.008-0.153-0.008h-80c-0.049,0-0.096,0.006-0.145,0.007
		c-0.079,0.002-0.159-0.002-0.238,0.002c-0.09,0.004-0.179,0.016-0.269,0.024c-0.105,0.008-0.209,0.018-0.313,0.031
		c-0.058,0.007-0.117,0.01-0.175,0.018c-0.095,0.014-0.188,0.035-0.283,0.052c-0.113,0.02-0.226,0.042-0.338,0.067
		c-0.045,0.01-0.091,0.017-0.137,0.028c-0.09,0.022-0.179,0.051-0.268,0.076c-0.118,0.033-0.236,0.067-0.352,0.105
		c-0.045,0.015-0.091,0.028-0.136,0.044c-0.079,0.028-0.157,0.062-0.236,0.092c-0.116,0.045-0.231,0.089-0.344,0.139
		c-0.055,0.024-0.11,0.048-0.165,0.074c-0.067,0.032-0.132,0.068-0.199,0.101c-0.105,0.053-0.211,0.105-0.313,0.163
		c-0.07,0.039-0.139,0.079-0.207,0.12c-0.018,0.011-0.037,0.019-0.055,0.03c-0.043,0.026-0.08,0.057-0.122,0.083
		c-0.086,0.055-0.173,0.109-0.258,0.168c-0.076,0.053-0.152,0.107-0.226,0.163c-0.064,0.048-0.125,0.097-0.187,0.147
		c-0.065,0.052-0.131,0.103-0.195,0.157c-0.073,0.062-0.145,0.124-0.216,0.189c-0.067,0.061-0.131,0.123-0.196,0.185
		c-0.055,0.053-0.109,0.107-0.162,0.162c-0.063,0.065-0.125,0.129-0.186,0.197c-0.064,0.071-0.126,0.142-0.188,0.215
		c-0.054,0.064-0.106,0.13-0.158,0.196c-0.049,0.063-0.099,0.124-0.147,0.188c-0.055,0.074-0.109,0.148-0.161,0.224
		c-0.059,0.085-0.113,0.172-0.169,0.259c-0.027,0.042-0.057,0.08-0.083,0.122l-87.92,143.868c-0.004,0.006-0.007,0.012-0.011,0.018
		l-0.069,0.113c-0.036,0.06-0.064,0.122-0.099,0.182c-0.087,0.152-0.173,0.304-0.25,0.46c-0.054,0.109-0.1,0.22-0.148,0.33
		c-0.054,0.123-0.108,0.246-0.156,0.372c-0.052,0.136-0.095,0.274-0.139,0.412c-0.033,0.105-0.068,0.209-0.097,0.316
		c-0.04,0.148-0.073,0.297-0.105,0.447c-0.022,0.103-0.044,0.206-0.062,0.31c-0.025,0.146-0.043,0.291-0.059,0.437
		c-0.013,0.114-0.026,0.229-0.034,0.344c-0.009,0.132-0.013,0.264-0.015,0.397c-0.003,0.132-0.005,0.263-0.001,0.395
		c0.003,0.116,0.012,0.23,0.02,0.346c0.01,0.147,0.022,0.293,0.041,0.439c0.013,0.105,0.032,0.208,0.049,0.313
		c0.025,0.151,0.052,0.301,0.086,0.451c0.024,0.107,0.055,0.213,0.083,0.319c0.038,0.14,0.076,0.279,0.122,0.418
		c0.042,0.126,0.091,0.25,0.139,0.374c0.044,0.114,0.086,0.228,0.136,0.341c0.069,0.157,0.148,0.309,0.227,0.462
		c0.033,0.064,0.06,0.13,0.095,0.193l0.067,0.12c0.002,0.004,0.005,0.008,0.007,0.013l39.876,71.777
		c0.008,0.015,0.017,0.03,0.025,0.045l0.025,0.045c0.007,0.013,0.016,0.023,0.023,0.036c0.065,0.115,0.136,0.226,0.206,0.338
		c0.062,0.099,0.123,0.198,0.19,0.294c0.05,0.072,0.1,0.143,0.152,0.213c0.039,0.053,0.082,0.103,0.122,0.155
		c0.063,0.081,0.125,0.162,0.191,0.24c0.097,0.115,0.2,0.225,0.305,0.335c0.012,0.013,0.024,0.027,0.036,0.04
		c0.042,0.043,0.08,0.09,0.123,0.133c0.023,0.023,0.049,0.043,0.072,0.065c0.099,0.096,0.203,0.189,0.309,0.28
		c0.096,0.084,0.192,0.167,0.291,0.246c0.041,0.032,0.078,0.069,0.12,0.1c0.055,0.042,0.117,0.078,0.174,0.119
		c0.126,0.091,0.254,0.179,0.385,0.263c0.042,0.027,0.08,0.057,0.122,0.083c0.024,0.015,0.05,0.024,0.074,0.038
		c0.058,0.034,0.114,0.069,0.173,0.102c0.229,0.129,0.463,0.247,0.705,0.354c0.021,0.009,0.041,0.021,0.062,0.03
		c0.03,0.013,0.061,0.026,0.091,0.038c0.016,0.006,0.032,0.011,0.047,0.017c0.258,0.105,0.523,0.195,0.793,0.274
		c0.047,0.014,0.093,0.029,0.14,0.042c0.051,0.014,0.103,0.021,0.153,0.033c0.22,0.055,0.443,0.1,0.669,0.136
		c0.072,0.011,0.143,0.031,0.215,0.04c0.032,0.004,0.065,0.003,0.098,0.007c0.283,0.034,0.569,0.054,0.86,0.057
		c0.027,0,0.055,0.006,0.082,0.006c0.001,0,0.003,0,0.004,0c0.004,0,0.007,0.001,0.011,0.001c0.008,0,0.016-0.001,0.024-0.001
		h175.938c0.008,0,0.016,0.001,0.024,0.001c0.024,0,0.048-0.004,0.072-0.005c0.3-0.002,0.595-0.024,0.887-0.058
		c0.086-0.01,0.172-0.026,0.258-0.039c0.246-0.037,0.488-0.085,0.726-0.144c0.076-0.019,0.152-0.037,0.227-0.058
		c0.295-0.083,0.584-0.178,0.864-0.293c0.013-0.005,0.026-0.009,0.039-0.014c0.298-0.124,0.584-0.267,0.863-0.424
		c0.071-0.04,0.14-0.085,0.21-0.128c0.202-0.122,0.397-0.253,0.587-0.392c0.083-0.06,0.165-0.12,0.246-0.184
		c0.239-0.19,0.47-0.388,0.685-0.604c0.037-0.037,0.07-0.079,0.107-0.117c0.19-0.198,0.369-0.406,0.538-0.622
		c0.057-0.073,0.112-0.147,0.166-0.222c0.176-0.242,0.341-0.493,0.49-0.755c0.011-0.02,0.026-0.037,0.037-0.057l0.025-0.045
		c0.008-0.015,0.017-0.03,0.025-0.045l39.876-71.777c0.002-0.004,0.005-0.008,0.007-0.013l0.067-0.12
		c0.004-0.007,0.006-0.014,0.01-0.02c0.056-0.102,0.105-0.208,0.157-0.313c0.052-0.105,0.105-0.21,0.153-0.317
		c0.006-0.013,0.013-0.026,0.019-0.039c0.007-0.016,0.016-0.032,0.024-0.049c0.046-0.106,0.082-0.217,0.123-0.326
		c0.038-0.1,0.076-0.199,0.11-0.301c0.007-0.021,0.016-0.042,0.023-0.063c0.007-0.021,0.016-0.041,0.023-0.063
		c0.031-0.1,0.053-0.205,0.081-0.307c0.028-0.103,0.057-0.205,0.08-0.309c0.012-0.055,0.03-0.109,0.041-0.163
		c0.004-0.02,0.006-0.042,0.01-0.062c0.015-0.075,0.023-0.151,0.036-0.226c0.018-0.104,0.036-0.208,0.049-0.313
		c0.008-0.065,0.02-0.129,0.027-0.194c0.001-0.014,0.001-0.029,0.003-0.043c0.007-0.067,0.007-0.135,0.012-0.202
		c0.008-0.115,0.017-0.23,0.02-0.346C391.995,287.815,391.999,287.746,391.999,287.677z M339.293,351.654H182.264l34.222-56h87.506
		c0.005,0,0.01,0.001,0.016,0.001c0.005,0,0.01-0.001,0.015-0.001h66.382L339.293,351.654z M291.514,151.654l78.222,128h-61.249
		l-78.222-128H291.514z M289.736,279.654h-63.472L258,227.723L289.736,279.654z M216,158.996l32.625,53.386l-80.295,131.392
		l-31.071-55.928L216,158.996z"/>
</g>
<g>
</g>
<g>
</g>
<g>
</g>
<g>
</g>
<g>
</g>
<g>
</g>
<g>
</g>
<g>
</g>
<g>
</g>
<g>
</g>
<g>
</g>
<g>
</g>
<g>
</g>
<g>
</g>
<g>
</g>
</svg>
