<?xml version="1.0" encoding="iso-8859-1"?>
<!-- Generator: Adobe Illustrator 19.0.0, SVG Export Plug-In . SVG Version: 6.00 Build 0)  -->
<svg version="1.1" id="Layer_1" xmlns="http://www.w3.org/2000/svg" xmlns:xlink="http://www.w3.org/1999/xlink" x="0px" y="0px"
	 viewBox="0 0 512.002 512.002" style="enable-background:new 0 0 512.002 512.002;" xml:space="preserve">
<g>
	<g>
		<path d="M511.058,371.945l-68.409-128.267c-1.394-2.612-4.113-4.245-7.074-4.245h-17.102h-17.637v-85.912c0-0.007,0-0.014,0-0.014
			v-0.12c0-0.04-0.005-0.077-0.005-0.117c-0.002-0.119-0.006-0.237-0.014-0.356c-0.005-0.096-0.01-0.193-0.019-0.289
			c-0.006-0.065-0.016-0.129-0.023-0.195c-0.012-0.095-0.025-0.19-0.041-0.286c-0.015-0.098-0.029-0.197-0.048-0.293
			c-0.016-0.083-0.036-0.166-0.056-0.249c-0.01-0.04-0.013-0.08-0.024-0.12c-0.011-0.043-0.026-0.081-0.036-0.124
			c-0.022-0.086-0.043-0.17-0.068-0.254c-0.028-0.094-0.06-0.187-0.091-0.28c-0.029-0.084-0.058-0.169-0.089-0.251
			c-0.025-0.064-0.048-0.129-0.074-0.192c-0.039-0.094-0.079-0.186-0.121-0.278c-0.042-0.093-0.084-0.185-0.129-0.276
			c-0.025-0.049-0.049-0.098-0.075-0.146c-0.045-0.087-0.093-0.172-0.141-0.257c-0.056-0.097-0.111-0.193-0.17-0.288
			c-0.027-0.043-0.055-0.084-0.082-0.126c-0.05-0.078-0.103-0.153-0.156-0.229c-0.066-0.094-0.133-0.188-0.202-0.279
			c-0.033-0.043-0.067-0.083-0.101-0.126c-0.056-0.068-0.112-0.136-0.17-0.202c-0.073-0.084-0.143-0.169-0.219-0.25
			c-0.043-0.046-0.087-0.09-0.129-0.134c-0.061-0.063-0.125-0.123-0.188-0.184c-0.074-0.07-0.145-0.142-0.221-0.209
			c-0.052-0.047-0.106-0.092-0.16-0.138c-0.07-0.059-0.142-0.114-0.215-0.171c-0.072-0.057-0.142-0.113-0.215-0.168
			c-0.061-0.045-0.122-0.089-0.184-0.131c-0.08-0.055-0.162-0.106-0.245-0.158c-0.072-0.046-0.141-0.093-0.214-0.136
			c-0.064-0.037-0.127-0.076-0.192-0.111c-0.09-0.05-0.182-0.095-0.274-0.141c-0.077-0.04-0.154-0.079-0.232-0.115
			c-0.062-0.029-0.123-0.059-0.185-0.086c-0.094-0.042-0.19-0.077-0.286-0.115c-0.092-0.036-0.185-0.071-0.278-0.104
			c-0.056-0.019-0.11-0.041-0.167-0.059c-0.092-0.03-0.185-0.055-0.278-0.081c-0.113-0.033-0.228-0.062-0.343-0.09
			c-0.039-0.01-0.078-0.023-0.118-0.033l-0.102-0.022c-0.011-0.002-0.021-0.005-0.032-0.008l-153.786-34.175
			c-1.917-0.429-3.919-0.135-5.632,0.818L4.211,240.394c-0.012,0.006-0.022,0.013-0.034,0.019l-0.052,0.029
			c-0.031,0.017-0.058,0.037-0.089,0.056c-0.032,0.018-0.066,0.034-0.098,0.053c-0.066,0.04-0.129,0.082-0.195,0.123
			c-0.06,0.037-0.121,0.073-0.18,0.112c-0.028,0.019-0.056,0.038-0.083,0.058c-0.041,0.028-0.081,0.057-0.121,0.086
			c-0.023,0.017-0.048,0.033-0.073,0.05c-0.06,0.044-0.117,0.091-0.175,0.136c-0.06,0.046-0.12,0.09-0.179,0.137
			c-0.022,0.018-0.044,0.039-0.066,0.058c-0.044,0.036-0.088,0.073-0.13,0.11c-0.02,0.018-0.041,0.035-0.061,0.053
			c-0.049,0.045-0.096,0.092-0.145,0.137c-0.059,0.055-0.119,0.108-0.175,0.165c-0.018,0.018-0.035,0.039-0.053,0.057
			c-0.043,0.043-0.086,0.084-0.127,0.128c-0.021,0.022-0.042,0.045-0.062,0.067c-0.041,0.044-0.077,0.091-0.117,0.136
			c-0.053,0.061-0.109,0.119-0.161,0.182c-0.018,0.021-0.033,0.046-0.051,0.067c-0.036,0.046-0.075,0.09-0.11,0.136
			c-0.021,0.028-0.042,0.057-0.063,0.084c-0.035,0.047-0.066,0.097-0.101,0.144c-0.044,0.061-0.092,0.119-0.134,0.182
			c-0.02,0.03-0.037,0.061-0.057,0.091c-0.029,0.044-0.06,0.087-0.088,0.131c-0.02,0.032-0.04,0.064-0.059,0.096
			c-0.032,0.052-0.059,0.108-0.089,0.16c-0.057,0.097-0.113,0.195-0.166,0.294c-0.022,0.043-0.046,0.086-0.067,0.128
			c-0.016,0.031-0.032,0.062-0.048,0.094c-0.027,0.055-0.047,0.111-0.072,0.166c-0.049,0.108-0.099,0.216-0.143,0.327
			c-0.018,0.046-0.037,0.092-0.055,0.138c-0.011,0.028-0.023,0.052-0.033,0.08c-0.022,0.061-0.038,0.125-0.06,0.187
			c-0.031,0.09-0.064,0.177-0.092,0.268c-0.008,0.026-0.014,0.051-0.021,0.077c-0.011,0.039-0.021,0.076-0.032,0.114
			c-0.029,0.105-0.052,0.211-0.078,0.317c-0.019,0.083-0.043,0.166-0.06,0.25c-0.006,0.031-0.012,0.062-0.017,0.092
			c-0.005,0.03-0.01,0.06-0.015,0.09c-0.01,0.055-0.021,0.109-0.03,0.165c-0.011,0.072-0.015,0.143-0.025,0.216
			c-0.009,0.071-0.022,0.14-0.03,0.212c-0.003,0.031-0.006,0.062-0.01,0.093c-0.003,0.031-0.003,0.063-0.005,0.094
			c-0.004,0.056-0.011,0.111-0.013,0.167c-0.005,0.087-0.002,0.172-0.004,0.259C0.006,247.348,0,247.432,0,247.516
			c0,0.041,0.004,0.082,0.005,0.123c0.001,0.049,0,0.098,0.002,0.149c0.004,0.095,0.015,0.188,0.022,0.282
			c0.005,0.071,0.005,0.141,0.013,0.211c0.005,0.056,0.017,0.112,0.023,0.168c0.005,0.041,0.006,0.08,0.013,0.121
			c0.014,0.095,0.034,0.189,0.051,0.284c0.011,0.062,0.017,0.125,0.029,0.186c0.002,0.011,0.003,0.02,0.005,0.031
			c0.012,0.056,0.029,0.111,0.042,0.167c0.029,0.124,0.061,0.246,0.095,0.368c0.004,0.014,0.006,0.029,0.011,0.043
			c0.013,0.046,0.021,0.093,0.035,0.139c0.006,0.021,0.012,0.043,0.018,0.064c0.009,0.028,0.021,0.056,0.03,0.083
			c0.008,0.021,0.016,0.042,0.022,0.063c0.036,0.109,0.077,0.217,0.119,0.324c0.009,0.022,0.016,0.046,0.026,0.068
			c0.016,0.042,0.029,0.084,0.046,0.126c0.013,0.03,0.024,0.06,0.036,0.09c0.005,0.012,0.012,0.024,0.017,0.035
			c0.014,0.033,0.031,0.063,0.046,0.095c0.043,0.096,0.091,0.19,0.138,0.285c0.002,0.004,0.004,0.009,0.006,0.013
			c0.031,0.062,0.058,0.126,0.091,0.188c0.018,0.034,0.037,0.068,0.057,0.104c0.004,0.007,0.006,0.014,0.011,0.021
			c0.012,0.021,0.027,0.038,0.04,0.06c0.002,0.003,0.003,0.005,0.005,0.009c0.052,0.091,0.107,0.181,0.162,0.269
			c0.023,0.038,0.045,0.079,0.069,0.117c0.019,0.029,0.036,0.059,0.056,0.088c0.002,0.003,0.004,0.005,0.006,0.009
			c0.036,0.055,0.076,0.106,0.113,0.158c0.041,0.058,0.079,0.115,0.122,0.171c0.033,0.044,0.067,0.087,0.101,0.129
			c0.045,0.058,0.087,0.117,0.133,0.173c0.034,0.042,0.072,0.08,0.107,0.122c0.056,0.065,0.11,0.129,0.168,0.192
			c0.034,0.037,0.068,0.074,0.103,0.11c0.042,0.044,0.08,0.091,0.123,0.135c0.014,0.015,0.03,0.028,0.044,0.043
			c0.026,0.026,0.056,0.048,0.082,0.075c0.088,0.084,0.177,0.167,0.268,0.247c0.067,0.06,0.131,0.122,0.201,0.179
			c0.035,0.029,0.073,0.055,0.108,0.082c0.019,0.016,0.037,0.033,0.058,0.048c0.012,0.009,0.021,0.02,0.033,0.029
			c0.011,0.009,0.02,0.017,0.031,0.026c0.063,0.048,0.133,0.091,0.198,0.138c0.064,0.046,0.124,0.095,0.189,0.139
			c0.042,0.029,0.087,0.052,0.129,0.08c0.09,0.059,0.182,0.115,0.275,0.171c0.051,0.03,0.103,0.061,0.155,0.091
			c0.088,0.049,0.176,0.096,0.266,0.142c0.104,0.053,0.21,0.103,0.316,0.152c0.092,0.043,0.183,0.089,0.277,0.128l0.001,0.001
			c0.005,0.002,0.012,0.004,0.017,0.008l410.427,171.011c0.992,0.414,2.039,0.617,3.083,0.617c1.561,0,3.112-0.455,4.448-1.347
			c2.23-1.487,3.57-3.989,3.57-6.67V363.96l75.487,19.522c0.666,0.172,1.339,0.255,2.007,0.255c2.421,0,4.757-1.099,6.299-3.057
			C512.251,378.178,512.556,374.752,511.058,371.945z M240.131,127.67l117.407,26.09L64.022,225.508L240.131,127.67z M384.803,163.6
			v75.834H74.574L384.803,163.6z M410.456,406.448L115.359,283.491l295.097,76.318V406.448z M420.48,345.842L71.032,255.467h321.787
			h25.653h12.292l57.557,107.92L420.48,345.842z"/>
	</g>
</g>
<g>
	<g>
		<path d="M469.78,68.41H358.615c-4.427,0-8.017,3.589-8.017,8.017c0,4.428,3.589,8.017,8.017,8.017H469.78
			c4.427,0,8.017-3.588,8.017-8.017C477.796,71.999,474.207,68.41,469.78,68.41z"/>
	</g>
</g>
<g>
	<g>
		<path d="M281.655,427.559H170.49c-4.427,0-8.017,3.588-8.017,8.017c0,4.428,3.589,8.017,8.017,8.017h111.165
			c4.428,0,8.017-3.588,8.017-8.017C289.671,431.147,286.082,427.559,281.655,427.559z"/>
	</g>
</g>
<g>
	<g>
		<path d="M427.024,34.206H264.552c-4.427,0-8.017,3.588-8.017,8.017c0,4.428,3.589,8.017,8.017,8.017h162.472
			c4.427,0,8.017-3.588,8.017-8.017C435.041,37.794,431.451,34.206,427.024,34.206z"/>
	</g>
</g>
<g>
	<g>
		<path d="M392.819,461.763H230.348c-4.427,0-8.017,3.588-8.017,8.017c0,4.428,3.589,8.017,8.017,8.017h162.472
			c4.427,0,8.017-3.588,8.017-8.017C400.836,465.352,397.248,461.763,392.819,461.763z"/>
	</g>
</g>
<g>
</g>
<g>
</g>
<g>
</g>
<g>
</g>
<g>
</g>
<g>
</g>
<g>
</g>
<g>
</g>
<g>
</g>
<g>
</g>
<g>
</g>
<g>
</g>
<g>
</g>
<g>
</g>
<g>
</g>
</svg>
