<?xml version="1.0" encoding="iso-8859-1"?>
<!-- Generator: Adobe Illustrator 17.1.0, SVG Export Plug-In . SVG Version: 6.00 Build 0)  -->
<!DOCTYPE svg PUBLIC "-//W3C//DTD SVG 1.1//EN" "http://www.w3.org/Graphics/SVG/1.1/DTD/svg11.dtd">
<svg version="1.1" id="Capa_1" xmlns="http://www.w3.org/2000/svg" xmlns:xlink="http://www.w3.org/1999/xlink" x="0px" y="0px"
	 viewBox="0 0 512 512" style="enable-background:new 0 0 512 512;" xml:space="preserve">
<g>
	<path d="M333.42,367.06c38.917,0,70.58-31.662,70.58-70.58v-38.815c0-4.418-3.582-8-8-8h-47.897c-4.418,0-8,3.582-8,8v40.092
		c0,3.762-3.061,6.823-6.822,6.823c-3.762,0-6.823-3.061-6.823-6.823v-39.322c0-2.527-1.194-4.906-3.221-6.416
		c-2.027-1.51-4.648-1.973-7.069-1.25l-25.608,7.65l-16.352-7.637c-2.478-1.157-5.375-0.968-7.682,0.5
		c-2.307,1.469-3.704,4.014-3.704,6.749l0,39.073C263.137,335.678,294.807,367.06,333.42,367.06z M278.822,270.598l7.725,3.608
		c1.777,0.831,3.797,0.979,5.675,0.417l18.235-5.448v28.583c0,12.585,10.238,22.823,22.823,22.823
		c12.584,0,22.822-10.238,22.822-22.823v-32.092H388v30.815c0,30.096-24.484,54.58-54.58,54.58
		c-29.862,0-54.355-24.263-54.598-54.02V270.598z"/>
	<path d="M163.897,249.665H116c-4.418,0-8,3.582-8,8v38.815c0,38.918,31.662,70.58,70.58,70.58c18.685,0,36.285-7.222,49.558-20.336
		c13.254-13.095,20.701-30.581,20.968-49.237c0-0.036,0.001-0.072,0.001-0.108l0.071-89.273c0-3.772,3.06-6.84,6.821-6.84
		c3.762,0,6.822,3.068,6.822,6.84v17.22c0,3.107,1.799,5.934,4.615,7.249l19.11,8.925c1.777,0.83,3.797,0.979,5.675,0.417
		l28.525-8.522c3.388-1.012,5.71-4.129,5.71-7.665v-19.792c0-0.079-0.001-0.158-0.003-0.237
		c-0.545-18.393-8.109-35.602-21.297-48.457c-13.229-12.896-30.687-19.997-49.157-19.997c-38.131,0-69.077,29.884-70.452,68.035
		c-0.003,0.096-0.005,0.192-0.005,0.288v90.404c0,3.772-3.061,6.84-6.823,6.84c-3.762,0-6.822-3.068-6.822-6.84v-38.307
		C171.897,253.246,168.316,249.665,163.897,249.665z M178.72,318.812c12.585,0,22.823-10.246,22.823-22.84v-90.255
		c1.134-29.434,25.027-52.472,54.457-52.472c14.273,0,27.765,5.488,37.988,15.454c10.173,9.917,16.019,23.179,16.469,37.358v13.711
		l-19.898,5.945l-11.737-5.481v-12.126c0-12.594-10.238-22.84-22.822-22.84c-12.583,0-22.821,10.246-22.821,22.834l-0.071,89.21
		c-0.22,14.413-5.978,27.918-16.214,38.032c-10.259,10.136-23.866,15.718-38.313,15.718c-30.096,0-54.58-24.484-54.58-54.58v-30.815
		h31.897v30.307C155.897,308.566,166.135,318.812,178.72,318.812z"/>
	<path d="M437.022,74.984C388.67,26.63,324.382,0,256,0C187.625,0,123.338,26.63,74.984,74.984S0,187.624,0,256
		c0,68.388,26.63,132.678,74.984,181.028C123.335,485.374,187.621,512,256,512c68.385,0,132.672-26.626,181.021-74.972
		C485.372,388.679,512,324.389,512,256C512,187.623,485.372,123.336,437.022,74.984z M425.708,425.714
		C380.381,471.039,320.112,496,256,496c-64.106,0-124.375-24.961-169.703-70.286C40.965,380.386,16,320.113,16,256
		c0-64.102,24.965-124.37,70.298-169.703C131.63,40.965,191.898,16,256,16c64.107,0,124.377,24.965,169.708,70.297
		C471.037,131.628,496,191.896,496,256C496,320.115,471.037,380.387,425.708,425.714z"/>
	<path d="M430.038,114.969c-2.784-3.431-7.822-3.957-11.252-1.172c-3.431,2.784-3.956,7.822-1.172,11.252
		C447.526,161.919,464,208.426,464,256c0,55.566-21.635,107.803-60.919,147.085C363.797,442.367,311.563,464,256,464
		c-51.261,0-100.505-18.807-138.663-52.956c-3.292-2.946-8.35-2.666-11.296,0.626s-2.666,8.35,0.626,11.296
		C147.763,459.745,200.797,480,256,480c59.836,0,116.088-23.297,158.394-65.601C456.701,372.094,480,315.84,480,256
		C480,204.767,462.256,154.681,430.038,114.969z"/>
	<path d="M48,256c0-114.691,93.309-208,208-208c51.26,0,100.504,18.808,138.662,52.959c3.293,2.948,8.35,2.666,11.296-0.625
		c2.947-3.292,2.667-8.35-0.625-11.296C364.237,52.256,311.203,32,256,32c-59.829,0-116.08,23.301-158.39,65.611
		C55.301,139.92,32,196.171,32,256c0,51.239,17.744,101.328,49.963,141.038c1.581,1.949,3.889,2.96,6.217,2.96
		c1.771,0,3.553-0.585,5.036-1.788c3.431-2.784,3.956-7.822,1.172-11.253C64.474,350.088,48,303.58,48,256z"/>
</g>
<g>
</g>
<g>
</g>
<g>
</g>
<g>
</g>
<g>
</g>
<g>
</g>
<g>
</g>
<g>
</g>
<g>
</g>
<g>
</g>
<g>
</g>
<g>
</g>
<g>
</g>
<g>
</g>
<g>
</g>
</svg>
