<?xml version="1.0" encoding="iso-8859-1"?>
<!-- Generator: Adobe Illustrator 19.0.0, SVG Export Plug-In . SVG Version: 6.00 Build 0)  -->
<svg version="1.1" id="Layer_1" xmlns="http://www.w3.org/2000/svg" xmlns:xlink="http://www.w3.org/1999/xlink" x="0px" y="0px"
	 viewBox="0 0 512 512" style="enable-background:new 0 0 512 512;" xml:space="preserve">
<g>
	<g>
		<path d="M508.016,112.284c-1.225-2.957-4.109-4.884-7.309-4.884h-99.489V7.911c0-3.2-1.927-6.084-4.884-7.309
			c-2.953-1.224-6.358-0.549-8.621,1.715l-56.681,56.681c-0.002,0.002-0.004,0.003-0.005,0.005
			c-0.002,0.002-0.003,0.004-0.005,0.005l-53.692,53.692c-1.484,1.483-2.317,3.496-2.317,5.594v9.299
			c-23.085-9.073-47.444-13.678-72.588-13.678c-109.752,0-199.042,89.29-199.042,199.042S92.671,512,202.424,512
			s199.042-89.29,199.042-199.042c0-27.707-5.541-54.339-16.467-79.352h5.324c2.098,0,4.11-0.833,5.594-2.317l53.699-53.699
			c0.001-0.001,0.002-0.002,0.002-0.002l56.684-56.684C508.563,118.642,509.241,115.24,508.016,112.284z M344.534,67.871
			l40.862-40.862v85.025l-40.862,40.862V67.871z M290.834,139.573v-18.002h0l37.879-37.879v85.025L300.86,196.57l-9.372,9.372
			c-0.218-0.182-0.436-0.365-0.655-0.545V139.573z M275.013,213.156v9.263h-0.001l-19.977,19.977
			c-15.168-11.334-33.581-17.512-52.61-17.512c-48.564,0-88.074,39.51-88.074,88.074s39.51,88.074,88.074,88.074
			s88.074-39.51,88.074-88.074c0-22.307-8.542-43.737-23.668-59.982l19.37-19.37h10.739c18.701,22.24,28.966,50.278,28.966,79.352
			c0,68.088-55.394,123.48-123.48,123.48c-68.088,0-123.48-55.394-123.48-123.48s55.394-123.48,123.48-123.48
			C228.797,189.477,253.806,197.664,275.013,213.156z M199.777,308.841c1.544,1.544,3.569,2.317,5.593,2.317
			s4.049-0.772,5.593-2.317l17.787-17.787c5.107,6.107,7.953,13.791,7.953,21.903c0,18.902-15.379,34.28-34.28,34.28
			c-18.903,0-34.28-15.379-34.28-34.28s15.378-34.28,34.28-34.28c4.736,0,9.306,0.955,13.539,2.79l-16.187,16.187
			C196.688,300.743,196.688,305.753,199.777,308.841z M227.693,269.737c-7.637-4.465-16.389-6.881-25.269-6.881
			c-27.627,0-50.102,22.475-50.102,50.102c0,27.626,22.475,50.102,50.102,50.102c27.626,0,50.102-22.476,50.102-50.102
			c0-12.359-4.496-24.039-12.55-33.128l15.658-15.658c12.175,13.28,19.042,30.683,19.042,48.786
			c0,39.84-32.412,72.252-72.252,72.252c-39.84,0-72.252-32.412-72.252-72.252c0-39.84,32.412-72.252,72.252-72.252
			c14.83,0,29.203,4.588,41.275,13.026L227.693,269.737z M385.644,312.957c0,101.029-82.192,183.222-183.221,183.222
			S19.203,413.986,19.203,312.958s82.192-183.221,183.221-183.221c25.257,0,49.65,5.029,72.588,14.956v49.425
			c-21.805-13.415-46.608-20.463-72.588-20.463c-76.812,0-139.302,62.491-139.302,139.302s62.491,139.302,139.302,139.302
			c76.812,0,139.302-62.491,139.302-139.302c0-28.512-8.747-56.137-24.884-79.352h50.752
			C379.569,258.434,385.644,285.103,385.644,312.957z M387.047,217.784H372.5h-68.455c-0.326-0.348-0.659-0.69-0.988-1.035
			l8.992-8.992l27.852-27.852h85.025L387.047,217.784z M440.747,164.085h-85.025l40.862-40.862h85.025L440.747,164.085z"/>
	</g>
</g>
<g>
</g>
<g>
</g>
<g>
</g>
<g>
</g>
<g>
</g>
<g>
</g>
<g>
</g>
<g>
</g>
<g>
</g>
<g>
</g>
<g>
</g>
<g>
</g>
<g>
</g>
<g>
</g>
<g>
</g>
</svg>
