<?xml version="1.0" encoding="iso-8859-1"?>
<!-- Generator: Adobe Illustrator 17.1.0, SVG Export Plug-In . SVG Version: 6.00 Build 0)  -->
<!DOCTYPE svg PUBLIC "-//W3C//DTD SVG 1.1//EN" "http://www.w3.org/Graphics/SVG/1.1/DTD/svg11.dtd">
<svg version="1.1" id="Capa_1" xmlns="http://www.w3.org/2000/svg" xmlns:xlink="http://www.w3.org/1999/xlink" x="0px" y="0px"
	 viewBox="0 0 512 512" style="enable-background:new 0 0 512 512;" xml:space="preserve">
<g>
	<path d="M437.022,74.984C388.67,26.63,324.381,0,256,0C187.624,0,123.338,26.63,74.984,74.984S0,187.624,0,256
		c0,68.388,26.63,132.678,74.984,181.028C123.335,485.375,187.621,512,256,512c68.385,0,132.673-26.625,181.021-74.972
		C485.372,388.679,512,324.389,512,256C512,187.623,485.372,123.336,437.022,74.984z M425.708,425.714
		C380.381,471.039,320.111,496,256,496c-64.106,0-124.374-24.961-169.703-70.286C40.965,380.386,16,320.113,16,256
		c0-64.102,24.965-124.37,70.297-169.703C131.63,40.965,191.898,16,256,16c64.108,0,124.378,24.965,169.708,70.297
		C471.037,131.628,496,191.896,496,256C496,320.115,471.037,380.387,425.708,425.714z"/>
	<path d="M430.038,114.969c-2.783-3.432-7.821-3.957-11.253-1.172c-3.431,2.784-3.956,7.822-1.172,11.252
		C447.526,161.919,464,208.426,464,256c0,55.567-21.635,107.803-60.919,147.085C363.797,442.367,311.563,464,256,464
		c-51.26,0-100.505-18.807-138.663-52.956c-3.292-2.946-8.35-2.666-11.296,0.626s-2.666,8.35,0.626,11.296
		C147.763,459.745,200.797,480,256,480c59.837,0,116.089-23.297,158.394-65.601C456.701,372.095,480,315.84,480,256
		C480,204.767,462.256,154.681,430.038,114.969z"/>
	<path d="M48,256c0-114.691,93.309-208,208-208c51.26,0,100.504,18.808,138.662,52.959c3.293,2.948,8.35,2.666,11.296-0.625
		c2.947-3.292,2.667-8.35-0.625-11.296C364.237,52.256,311.203,32,256,32c-59.829,0-116.08,23.301-158.389,65.611
		C55.301,139.921,32,196.171,32,256c0,51.239,17.744,101.328,49.963,141.038c1.581,1.949,3.889,2.96,6.217,2.96
		c1.771,0,3.553-0.585,5.036-1.788c3.431-2.784,3.956-7.822,1.172-11.253C64.474,350.088,48,303.58,48,256z"/>
	<path d="M198.994,219.972c-2.245-11.125-4.155-22.843-5.836-35.815l-0.303-4.039c-0.313-4.174-3.791-7.402-7.978-7.402H142.55
		c-2.302,0-4.493,0.992-6.012,2.722c-1.519,1.73-2.219,4.031-1.921,6.313l0.329,2.514c6.223,44.681,15.199,80.754,28.251,113.529
		c12.573,31.497,26.702,55.307,44.471,74.942c7.524,8.289,14.913,14.688,22.546,19.536c5.694,3.665,11.539,5.499,17.39,5.499
		c6.278,0,12.564-2.111,18.685-6.337c2.963-2.1,5.646-4.232,7.985-6.349c24.942-22.655,45.214-49.029,60.288-78.443
		c5.498-0.096,11.372-0.711,18.357-1.916c3.69-0.651,7.331-1.416,11.13-2.337c3.678-0.892,6.19-4.221,6.112-7.936v-27.669
		c0.128-0.773,0.144-1.577,0.033-2.389c-0.541-3.964-3.926-6.919-7.927-6.919h-0.106c-0.919,0-1.801,0.156-2.623,0.443
		c-3.589,0.92-7.359,1.552-11.533,1.932c-21.198,2.011-36.332-4.74-46.273-20.629c-5.807-9.291-8.265-20.565-7.518-34.438
		c0.296-5.146,1.288-9.019,3.119-12.175c2.122-3.386,3.937-3.734,5.49-3.794c1.786-0.076,5.504-0.223,7.403,7.823
		c2.055,9.008,1.331,18.844-2.364,31.954c-0.334,1.222-1.001,3.889-1.001,3.889c-0.639,2.555,0.02,5.259,1.763,7.234
		c0.18,0.204,1.797,2.032,3.069,3.304c8.778,8.894,20.321,12.659,35.289,11.507c1.79-0.114,4.205-0.333,4.205-0.333
		c3.035-0.276,5.647-2.25,6.741-5.094c0,0,1.102-2.863,1.54-4.07c6.541-17.956,8.807-35.337,6.931-53.096
		c-3.248-32.337-22.791-52.7-53.642-55.87c-32.372-3.231-58.101,12.361-68.823,41.705c-5.642,15.512-6.73,32.113-3.336,50.718
		c5.12,28.745,18.868,50.461,40.844,64.589c-8.988,16.517-19.572,31.599-31.5,44.882C225.2,306.502,208.536,267.911,198.994,219.972
		z M261.431,349.111c13.867-15.36,26.026-32.948,36.137-52.27c3.193-6.093,1.588-11.806-4.343-15.31
		c-20.21-11.744-32.272-30.012-36.881-55.882c-2.877-15.768-2.018-29.641,2.622-42.4c8.171-22.359,27.199-33.755,52.18-31.266
		c29.363,3.017,37.596,24.26,39.337,41.591c1.587,15.023-0.284,29.773-5.72,45.068c-9.467,0.563-16.079-1.44-21.287-6.472
		c2.922-10.527,5.711-24.351,2.336-39.147c-3.096-13.12-11.932-20.673-23.621-20.195c-7.769,0.299-13.998,4.148-18.512,11.44
		c-0.033,0.053-0.066,0.107-0.098,0.161c-3.194,5.441-4.891,11.617-5.343,19.465c-0.932,17.3,2.314,31.63,9.927,43.811
		c13.282,21.229,33.928,30.673,61.319,28.078c1.598-0.146,3.154-0.323,4.676-0.535v12.958c-1.336,0.272-2.664,0.524-3.993,0.758
		c-6.689,1.154-12.137,1.691-17.146,1.691c-0.103,0-0.205,0.002-0.308,0.006c-5.517,0.212-9.427,2.77-11.932,7.779
		c-14.221,28.035-33.488,53.202-57.256,74.79c-1.858,1.682-4.042,3.414-6.41,5.093c-6.43,4.439-11.886,4.586-18.285,0.468
		c-6.449-4.096-12.768-9.595-19.309-16.801c-16.444-18.171-29.621-40.455-41.464-70.123c-11.918-29.928-20.328-62.869-26.31-103.153
		h25.87c1.65,12.361,3.516,23.646,5.687,34.4c10.073,50.609,27.84,91.516,54.32,125.065c3.658,4.623,6.546,8.275,11.714,8.444
		C254.491,356.788,257.554,353.403,261.431,349.111z"/>
</g>
<g>
</g>
<g>
</g>
<g>
</g>
<g>
</g>
<g>
</g>
<g>
</g>
<g>
</g>
<g>
</g>
<g>
</g>
<g>
</g>
<g>
</g>
<g>
</g>
<g>
</g>
<g>
</g>
<g>
</g>
</svg>
