<?xml version="1.0" encoding="iso-8859-1"?>
<!-- Generator: Adobe Illustrator 17.1.0, SVG Export Plug-In . SVG Version: 6.00 Build 0)  -->
<!DOCTYPE svg PUBLIC "-//W3C//DTD SVG 1.1//EN" "http://www.w3.org/Graphics/SVG/1.1/DTD/svg11.dtd">
<svg version="1.1" id="Capa_1" xmlns="http://www.w3.org/2000/svg" xmlns:xlink="http://www.w3.org/1999/xlink" x="0px" y="0px"
	 viewBox="0 0 512 512" style="enable-background:new 0 0 512 512;" xml:space="preserve">
<g>
	<path d="M273.44,309.266l33.529,55.968c0.137,0.229,0.285,0.45,0.444,0.663c1.855,2.495,8.543,10.634,16.698,10.634
		c7.318,0,13.49-4.852,14.653-5.824c0.54-0.451,1.018-0.972,1.421-1.549l26.532-37.9c0.157-0.225,0.303-0.457,0.436-0.696
		c0.606-1.09,3.637-6.823,3.73-12.718c0.142-8.596-7.28-13.909-14.884-15.468l-62.328-20.017c-0.122-0.04-0.245-0.076-0.369-0.109
		c-1.088-0.292-10.84-2.65-18.001,4.597c-8.135,8.195-2.888,20.308-2.262,21.662C273.159,308.767,273.293,309.02,273.44,309.266z
		 M286.824,297.979c0.604-0.403,1.777-0.354,2.334-0.266l62.405,20.042c0.337,0.108,0.611,0.181,0.959,0.244
		c0.701,0.14,1.568,0.445,2.197,0.75c-0.286,1.229-0.885,2.733-1.395,3.744l-25.508,36.438c-1.048,0.701-2.389,1.367-3.278,1.552
		c-1.015-0.575-2.847-2.305-4.08-3.866l-33.014-55.109C287.063,300.512,286.689,298.776,286.824,297.979z"/>
	<path d="M287.018,276.327c2.181,0,3.799-0.257,4.262-0.34c0.282-0.05,0.561-0.116,0.836-0.196l62.635-18.299
		c0.262-0.077,0.521-0.167,0.774-0.27c2.874-1.17,12.41-5.602,14.496-13.526c1.813-7.022-1.274-14.216-1.912-15.586
		c-0.303-0.65-0.691-1.257-1.155-1.804l-29.629-34.907c-1.463-2.107-5.867-7.376-13.686-8.048
		c-10.183-0.875-15.893,8.259-17.179,10.593l-35.251,55.44c-0.077,0.121-0.15,0.244-0.221,0.369
		c-0.551,0.979-5.233,9.816-0.073,18.555C274.922,275.119,282.292,276.327,287.018,276.327z M284.94,257.607l35.18-55.328
		c0.138-0.217,0.265-0.44,0.381-0.669c0.297-0.583,1.343-1.911,1.987-2.288c0.817,0.163,1.391,0.802,1.587,1.049
		c0.246,0.481,0.357,0.563,0.751,1.027l29.086,34.267c0.417,1.214,0.725,2.701,0.681,3.593c-0.804,0.843-2.951,2.197-4.785,3.008
		l-61.661,18.015c-1.047,0.115-2.798,0.039-3.534-0.287C284.369,259.287,284.71,258.144,284.94,257.607z"/>
	<path d="M264.95,311.426c-0.041-1.115-0.66-11.032-9.696-15.754c-10.191-5.215-20.172,3.268-21.277,4.252
		c-0.209,0.186-0.408,0.383-0.596,0.59l-43.708,48.081c-0.183,0.201-0.355,0.411-0.517,0.63c-1.84,2.492-7.657,11.227-5.267,18.991
		c1.849,5.993,5.247,10.011,10.693,12.647c0.348,0.168,0.707,0.311,1.075,0.427l43.874,13.859c0.249,0.079,0.501,0.145,0.756,0.199
		c0.736,0.156,3.354,0.655,6.565,0.655c2.09,0,4.43-0.211,6.666-0.868c8.235-2.388,11.152-10.977,10.438-18.644l0.998-64.648
		C264.956,311.705,264.955,311.565,264.95,311.426z M247.997,377.71c0.068,0.69,0.028,1.584-0.079,2.254
		c-1.269,0.102-2.916-0.026-4.017-0.214l-42.811-13.524c-0.758-0.411-1.262-0.879-1.744-2.223c0.228-1.097,1.351-3.361,2.483-4.995
		l43.036-47.342c0.848-0.661,2.419-1.535,3.236-1.643c0.5,0.45,0.769,1.472,0.848,1.997l-0.999,64.702
		C247.945,377.077,247.955,377.359,247.997,377.71z"/>
	<path d="M154.901,231.434c-4.256,2.48-9.436,7.689-10.034,14.285l-3.635,44.896c-0.173,2.384-0.504,10.563,2.494,15.821
		c2.041,3.594,6.412,6.83,12.956,6.83c2.505,0,5.33-0.475,8.463-1.585l64.728-14.291c0.981-0.217,1.857-0.581,2.69-1.142
		c0.207-0.124,0.437-0.227,0.671-0.342c2.933-1.443,9.801-4.824,10.137-17.076c0.302-11.529-11.078-17.589-12.69-18.388
		l-55.853-28.215c-0.183-0.092-0.369-0.177-0.558-0.255C171.459,230.812,161.745,227.349,154.901,231.434z M223.533,274.757
		c1.966,1.007,3.864,2.944,3.845,3.646c-0.045,1.632-0.267,2.427-0.375,2.722c-0.212,0.121-0.562,0.293-0.834,0.427
		c-0.292,0.144-0.613,0.302-0.955,0.482l-64.033,14.137c-0.367,0.081-0.728,0.188-1.081,0.32c-0.656,0.246-1.797,0.516-2.752,0.635
		c-0.2-1.475-0.279-3.59-0.163-5.285l3.599-44.459c0.224-0.432,0.89-1.248,1.817-1.893c1.099-0.041,3.539,0.494,5.336,1.183
		L223.533,274.757z"/>
	<path d="M229.632,243.423c0.217,0.295,0.454,0.576,0.709,0.839c0.747,0.771,6.687,6.6,15.234,6.6c1.451,0,2.979-0.168,4.567-0.558
		c12.43-3.065,14.385-17.771,14.567-19.438c0.033-0.303,0.049-0.607,0.047-0.913l-0.494-89.167c-0.001-0.252-0.015-0.505-0.04-0.757
		c-0.354-3.509-2.108-15.324-9.889-20.043c-8.28-4.987-13.348-4.388-17.59-3c-0.093,0.031-0.184,0.062-0.271,0.089
		c-0.452,0.084-0.895,0.207-1.326,0.366l-51.915,19.271c-1.608,0.56-7.986,3.099-11.827,9.245
		c-5.031,8.004-0.841,17.877,4.367,24.035L229.632,243.423z M188.504,151.82c0.1-0.031,0.071-0.024,0.204-0.074l51.437-19.093
		c0.625-0.148,1.155-0.322,1.581-0.462c0.219-0.071,0.518-0.169,0.555-0.182c0.01,0,1.016,0.034,3.586,1.554
		c0.889,1.042,2.027,4.725,2.4,7.74l0.489,88.193c-0.331,2.053-1.6,5.064-2.432,5.269c-1.699,0.413-3.552-0.885-4.274-1.468
		l-53.551-73.01c-0.127-0.173-0.261-0.341-0.401-0.503c-1.284-1.483-2.851-4.322-2.957-5.59
		C186.005,153.038,187.71,152.123,188.504,151.82z"/>
	<path d="M437.022,74.984C388.67,26.63,324.381,0,256,0C187.624,0,123.338,26.63,74.984,74.984S0,187.624,0,256
		c0,68.388,26.63,132.678,74.984,181.028C123.335,485.375,187.621,512,256,512c68.385,0,132.673-26.625,181.021-74.972
		C485.372,388.679,512,324.389,512,256C512,187.623,485.372,123.336,437.022,74.984z M425.708,425.714
		C380.381,471.039,320.111,496,256,496c-64.106,0-124.374-24.961-169.703-70.286C40.965,380.386,16,320.113,16,256
		c0-64.102,24.965-124.37,70.297-169.703C131.63,40.965,191.898,16,256,16c64.108,0,124.378,24.965,169.708,70.297
		C471.037,131.628,496,191.896,496,256C496,320.115,471.037,380.387,425.708,425.714z"/>
	<path d="M430.038,114.969c-2.783-3.432-7.821-3.957-11.253-1.172c-3.431,2.784-3.956,7.822-1.172,11.252
		C447.526,161.919,464,208.426,464,256c0,55.567-21.635,107.803-60.919,147.085C363.797,442.367,311.563,464,256,464
		c-51.26,0-100.505-18.807-138.663-52.956c-3.292-2.946-8.35-2.665-11.296,0.626c-2.946,3.292-2.666,8.35,0.626,11.296
		C147.763,459.745,200.797,480,256,480c59.837,0,116.089-23.297,158.394-65.601C456.701,372.095,480,315.84,480,256
		C480,204.767,462.256,154.681,430.038,114.969z"/>
	<path d="M48,256c0-114.691,93.309-208,208-208c51.26,0,100.504,18.808,138.662,52.959c3.293,2.948,8.351,2.667,11.296-0.625
		c2.947-3.292,2.667-8.35-0.625-11.296C364.237,52.256,311.203,32,256,32c-59.829,0-116.08,23.301-158.389,65.611
		C55.301,139.921,32,196.171,32,256c0,51.239,17.744,101.328,49.963,141.038c1.581,1.949,3.889,2.96,6.217,2.96
		c1.771,0,3.553-0.585,5.036-1.788c3.431-2.784,3.956-7.822,1.172-11.253C64.474,350.088,48,303.58,48,256z"/>
</g>
<g>
</g>
<g>
</g>
<g>
</g>
<g>
</g>
<g>
</g>
<g>
</g>
<g>
</g>
<g>
</g>
<g>
</g>
<g>
</g>
<g>
</g>
<g>
</g>
<g>
</g>
<g>
</g>
<g>
</g>
</svg>
